<?xml version="1.0" encoding="utf-8"?>
<!-- Generator: Adobe Illustrator 16.0.0, SVG Export Plug-In . SVG Version: 6.00 Build 0)  -->
<!DOCTYPE svg PUBLIC "-//W3C//DTD SVG 1.1//EN" "http://www.w3.org/Graphics/SVG/1.1/DTD/svg11.dtd">
<svg version="1.1" id="Layer_1" xmlns="http://www.w3.org/2000/svg" xmlns:xlink="http://www.w3.org/1999/xlink" x="0px" y="0px"
	 width="230px" height="53px" viewBox="0 0 615.334 142.767" enable-background="new 0 0 615.334 142.767"
	 xml:space="preserve">
<g>
	<defs>
		<rect id="SVGID_1_" width="627.483" height="142.767"/>
	</defs>
	<clipPath id="SVGID_2_">
		<use xlink:href="#SVGID_1_"  overflow="visible"/>
	</clipPath>
	<path clip-path="url(#SVGID_2_)" fill="#2DBF5B" d="M3.509,33.045L61.254,1.252c3.033-1.67,6.711-1.67,9.744,0l57.745,31.793
		c2.171,1.195,3.508,3.405,3.508,5.795v65.087c0,2.391-1.337,4.6-3.508,5.795l-57.745,31.793c-3.033,1.67-6.711,1.67-9.744,0
		L3.509,109.722C1.338,108.527,0,106.318,0,103.927V38.84C0,36.45,1.338,34.24,3.509,33.045"/>
	<path clip-path="url(#SVGID_2_)" fill="#FFFFFF" d="M62.227,36.221c0.114,2.604-1.042,4.645-2.712,6.506
		c-4.902,5.461-2.371,13.622,4.765,15.196c2.716,0.599,5.387,0.132,7.46-1.861c2.745-2.639,5.848-3.959,9.606-2.94
		c6.708,1.818,8.931,9.947,4.189,15.086c-2.872,3.111-3.619,6.861-2.046,10.264c2.657,5.747,9.812,7.216,14.522,2.922
		c2.698-2.46,5.711-3.511,9.287-2.465c3.768,1.101,6.286,4.334,6.566,8.335c0.234,3.345-1.97,7.029-5.14,8.593
		c-3.29,1.623-7.391,1.072-10.122-1.453c-1.431-1.322-2.984-2.27-4.906-2.772c-4.337-1.136-8.158,1.505-9.986,4.751
		c-1.768,3.139-1.144,7.481,1.488,10.339c3.115,3.38,3.802,7.661,1.664,11.209c-1.927,3.199-4.829,4.853-8.581,4.568
		c-3.67-0.277-6.338-2.233-7.759-5.63c-1.455-3.478-0.973-6.918,1.681-9.519c3.96-3.88,3.719-9.82,0.033-13.61
		c-3.475-3.574-3.211-9.101,0.242-12.525c2.429-2.409,3.287-5.286,2.423-8.568c-0.913-3.47-3.119-5.803-6.653-6.706
		c-3.838-0.981-8.021,0.789-10.015,4.169c-2.071,3.511-1.582,7.795,1.241,10.884c3.562,3.898,3.787,9.08,0.552,12.705
		c-3.442,3.856-9.121,4.147-12.981,0.665c-3.785-3.413-3.995-9.176-0.472-12.979c3.372-3.642,3.784-8.087,1.122-11.974
		c-2.891-4.22-9.435-4.895-12.943-1.936c-1.423,1.201-2.794,2.521-4.744,3.084c-4.079,1.178-8.407-0.435-10.467-4.129
		c-2.167-3.887-1.259-8.773,2.161-11.621c3.135-2.612,8.036-2.725,11.175-0.141c2.002,1.648,3.965,3.271,6.712,3.422
		c3.906,0.214,7.347-1.766,8.94-5.157c1.657-3.527,0.995-7.406-1.761-10.327c-3.993-4.232-3.507-10.632,1.124-13.865
		c3.022-2.11,6.28-2.347,9.555-0.631C60.685,29.806,62.176,32.615,62.227,36.221"/>
	<path clip-path="url(#SVGID_2_)" fill="#FFFFFF" d="M78.892,45.362c-4.962,0.006-9.169-4.279-9.142-9.312
		c0.027-4.933,4.202-9.023,9.246-9.057c4.88-0.033,9.153,4.257,9.145,9.18C88.133,41.245,83.996,45.355,78.892,45.362"/>
	<path clip-path="url(#SVGID_2_)" fill="#FFFFFF" d="M175.982,101.038c-10.976,0-15.934-7.525-15.934-17.44V48.628
		c0-3.453,2.567-6.197,5.931-6.197c3.275,0,5.932,2.744,5.932,6.197v6.021h11.065c2.922,0,5.488,2.213,5.488,5.31
		c0,2.922-2.566,5.135-5.488,5.135h-11.065v18.237c0,4.249,1.858,6.55,5.753,6.55c1.948,0,3.897-0.531,5.49-0.973
		c4.515-1.063,7.348,1.771,7.348,5.046c0,1.947-0.975,3.983-3.72,5.223C183.685,100.595,179.346,101.038,175.982,101.038"/>
	<path clip-path="url(#SVGID_2_)" fill="#2DBF5B" d="M209.533,47.744c-3.63,0-6.286-3.01-6.286-6.463
		c0-3.542,2.656-6.286,6.286-6.286c3.451,0,6.284,2.744,6.284,6.286C215.816,44.734,212.983,47.744,209.533,47.744"/>
	<path clip-path="url(#SVGID_2_)" fill="#FFFFFF" d="M215.463,58.72v35.943c0,3.363-2.567,6.107-5.93,6.107
		c-3.188,0-5.933-2.744-5.933-6.107V58.72c0-3.451,2.48-6.108,5.933-6.108C212.808,52.612,215.463,55.269,215.463,58.72"/>
	<path clip-path="url(#SVGID_2_)" fill="#FFFFFF" d="M274.245,94.663c0,3.364-2.479,6.108-5.932,6.108
		c-3.186,0-5.931-2.744-5.931-6.108V72.266c0-5.754-3.983-8.322-8.587-8.322c-3.542,0-6.994,1.062-8.676,2.124v28.595
		c0,3.364-2.478,6.108-5.931,6.108c-3.188,0-5.932-2.744-5.932-6.108V61.553c0-2.213,0.62-3.275,2.124-4.337
		c2.746-1.947,9.297-4.869,18.769-4.869c13.279,0,20.096,6.993,20.096,19.387V94.663z"/>
	<path clip-path="url(#SVGID_2_)" fill="#FFFFFF" d="M303.013,55.8c1.947-1.771,6.462-3.453,11.154-3.453
		c11.242,0,17.882,6.728,17.882,19.387v22.751c0,3.542-2.48,6.286-6.02,6.286c-3.275,0-5.842-2.744-5.842-6.286V72.353
		c0-5.399-3.099-8.41-7.968-8.41c-3.719,0-7.347,1.682-9.207,3.72v27c0,3.363-2.479,6.107-5.843,6.107
		c-3.275,0-6.021-2.744-6.021-6.107v-51.79c0-3.451,2.567-6.108,5.932-6.108c3.274,0,5.932,2.657,5.932,6.108V55.8z"/>
	<path clip-path="url(#SVGID_2_)" fill="#FFFFFF" d="M368.963,101.038c-11.599,0-20.361-7.437-21.246-17.973
		c-0.266-3.54-0.266-9.116,0-12.659c0.885-10.622,9.647-18.059,21.246-18.059c11.684,0,20.272,7.437,21.157,18.059
		c0.266,3.542,0.266,9.03,0,12.572C389.235,93.601,380.646,101.038,368.963,101.038 M378.348,72.266
		c-0.266-5.048-3.808-8.587-9.385-8.587s-9.03,3.539-9.474,8.587c-0.178,2.39-0.178,6.55,0,8.853
		c0.443,5.046,3.896,8.588,9.474,8.588s9.029-3.542,9.385-8.588C378.521,78.816,378.521,74.656,378.348,72.266"/>
	<path clip-path="url(#SVGID_2_)" fill="#FFFFFF" d="M434.295,84.305c0.973-1.771,2.479-2.744,4.692-2.744
		c3.453,0,5.755,2.744,5.755,6.107c0,4.959-6.729,13.369-19.654,13.369c-11.598,0-20.095-8.146-20.979-18.591
		c-0.267-3.63-0.267-8.499,0-12.04c0.707-10.623,9.471-18.059,20.979-18.059c13.015,0,19.565,8.232,19.565,13.189
		c0,3.277-2.303,6.021-5.754,6.021c-2.214,0-3.72-0.886-4.693-2.657c-1.946-3.629-4.959-5.222-8.763-5.222
		c-5.756,0-9.03,3.364-9.563,8.499c-0.177,2.125-0.177,6.108,0,8.499c0.533,5.135,3.72,9.029,9.563,9.029
		C429.247,89.706,432.348,87.935,434.295,84.305"/>
	<path clip-path="url(#SVGID_2_)" fill="#FFFFFF" d="M487.053,44.556v50.018c0,3.453-2.565,6.109-6.018,6.109
		c-3.187,0-5.933-2.745-5.933-6.109V54.472l-8.94,5.046c-3.013,1.682-6.551,0.708-8.234-2.213c-1.591-2.833-0.443-6.551,2.391-8.234
		l17.53-9.826c1.063-0.619,2.035-0.886,3.187-0.886C484.929,38.359,487.053,41.812,487.053,44.556"/>
	<path clip-path="url(#SVGID_2_)" fill="#FFFFFF" d="M522.372,71.911c12.749-8.676,16.113-10.976,16.113-15.758
		c0-3.099-2.036-7.083-8.941-7.083c-5.044,0-8.322,2.126-10.535,4.782c-0.885,1.062-1.77,1.948-3.187,2.39
		c-3.187,0.974-6.728-0.797-7.613-3.719c-0.531-1.858-0.354-3.717,0.797-5.31c3.452-4.604,10.269-9.739,20.271-9.739
		c14.078,0,21.424,8.232,21.424,18.326c0,7.17-2.654,12.569-16.73,22.308c-4.427,3.188-10.533,7.259-11.154,10.358h23.284
		c3.364,0,6.106,2.654,6.106,5.93c0,3.453-2.742,5.933-6.106,5.933h-30.545c-4.337,0-7.436-2.655-7.436-7.437
		C508.12,84.924,512.902,78.375,522.372,71.911"/>
	<path clip-path="url(#SVGID_2_)" fill="#FFFFFF" d="M593.548,61.2c9.651,0.886,15.935,7.083,15.935,16.023
		c0,15.847-16.023,23.637-38.242,23.372c-3.453,0-5.844-2.391-6.021-5.666c-0.177-3.453,2.746-6.729,6.287-6.198
		c13.9,1.418,26.027-3.098,26.027-11.154c0-4.426-3.098-7.17-8.146-7.17c-2.92,0-6.021,1.151-7.79,1.151
		c-2.745,0-5.488-2.124-5.488-5.401c0-1.415,0.529-3.009,2.303-4.426l11.86-11.42H571.24c-3.364,0-6.11-2.744-6.11-6.019
		c0-3.364,2.746-5.933,6.11-5.933h27.355c4.337,0,7.612,3.1,7.612,7.348c0,1.506-0.529,3.542-1.858,4.87L593.548,61.2z"/>
</g>
</svg>
